<svg width="130" height="22" viewBox="0 0 130 22" fill="none" xmlns="http://www.w3.org/2000/svg">
<path d="M140 18.0357V20.5562H139.577V18.6138H139.551L138.85 20.5562H138.486L137.79 18.6138V20.5562H137.362V18.0357H137.999L138.7 20.0102L139.363 18.0357H140ZM137.089 18.0357V18.3995H136.27V20.5559H135.848V18.3995H135.029V18.0357H137.089ZM126.505 14.2739C127.142 12.2136 127.142 10.9991 126.532 10.207C126.077 9.66123 125.413 9.38834 124.407 9.38834C122.165 9.38834 120.924 10.6619 119.923 13.851C119.281 15.9432 119.281 17.1578 119.891 17.9447C120.314 18.4636 121.014 18.7367 122.015 18.7367C124.225 18.7367 125.504 17.49 126.505 14.2739ZM135.27 9.66123C136.147 10.7583 136.335 12.1496 135.816 13.8513C134.36 18.5548 128.87 21.2517 120.736 21.2517C115.883 21.2517 112.581 20.31 111.12 18.4905C110.243 17.3991 110.093 15.9755 110.607 14.2739C112.062 9.57036 117.552 6.87346 125.686 6.87346C130.507 6.87346 133.847 7.84201 135.27 9.66123ZM104.935 7.3281H113.55C113.031 8.02389 103.661 20.6149 103.506 20.829H90.2833C90.2191 20.433 88.6407 7.81514 88.5817 7.3281H96.6834C96.742 7.72413 97.8659 16.7943 97.8659 16.7943C97.8659 16.7943 104.811 7.51011 104.935 7.3281ZM78.2059 14.2739C78.8427 12.2136 78.875 10.9991 78.2379 10.207C77.8099 9.66123 77.1145 9.38834 76.1457 9.38834C73.8984 9.38834 72.6248 10.6619 71.656 13.851C70.9872 15.9432 70.9872 17.1578 71.6239 17.9447C72.0467 18.4636 72.7477 18.7367 73.7161 18.7367C75.9638 18.7367 77.2374 17.49 78.2059 14.2739ZM87.0031 9.66123C87.8859 10.7583 88.068 12.1496 87.5221 13.8513C86.0668 18.5548 80.5712 21.2517 72.475 21.2517C67.6216 21.2517 64.3146 20.31 62.8538 18.4905C61.9762 17.3991 61.7943 15.9755 62.3081 14.2739C63.7957 9.57036 69.2858 6.87346 77.3873 6.87346C82.2405 6.87346 85.5476 7.84201 87.0031 9.66123ZM61.6443 8.99797C61.9761 9.42074 62.1581 9.84325 62.0671 10.4533L58.7013 20.8559H49.7811L52.9384 11.1492C53.056 10.7265 52.9063 10.3626 52.6654 10.0897C52.2372 9.57062 51.3277 9.23886 48.2028 9.45274C48.2028 9.45274 44.5053 20.7062 44.4409 20.8559H35.5259C35.6118 20.615 39.7105 8.08829 39.7694 7.96515C42.8678 7.41937 46.9612 6.90559 51.21 6.90559C56.9728 6.90573 60.4885 7.60139 61.6443 8.99797ZM29.0939 11.8501C29.2759 10.9993 29.003 10.3626 28.6977 9.99866C28.3661 9.57062 27.6329 9.02471 26.1187 9.02471C23.9676 9.02471 22.3568 10.0575 21.8109 11.7859L20.7514 15.7617L29.0939 11.8501ZM36.5853 11.8179C36.5853 12.4547 36.4356 13.0006 36.3124 13.2413C36.0395 13.3056 20.4787 16.7624 20.4787 16.7624C20.4787 16.7624 20.3233 17.5224 20.9014 17.9181C21.6613 18.464 22.48 18.6139 23.8713 18.6728C27.3014 18.8227 31.9458 16.8213 33.2465 16.2487C33.0377 16.9122 31.6999 19.8286 31.641 19.9784C31.063 20.1924 27.847 21.2198 21.538 21.2519C19.1406 21.2841 14.8653 20.9791 13.1048 18.7637C12.2272 17.6722 12.0722 16.1256 12.6767 14.1833C14.1055 9.54375 19.4459 6.87372 27.2691 6.87372C31.641 6.87372 34.4931 7.69239 35.7988 9.29773C36.3124 9.96652 36.5853 10.8173 36.5853 11.8179ZM6.21799 0.746338H15.0474C14.8655 1.31899 8.92055 20.4919 8.82415 20.829H0.000259399C0.182011 20.2511 6.12698 1.07823 6.21799 0.746338Z" fill="#005E9D"/>
</svg>
