<svg width="166" height="34" viewBox="0 0 166 34" fill="none" xmlns="http://www.w3.org/2000/svg">
<path d="M66.884 19.332H70.394C70.4633 19.9213 70.732 20.4587 71.2 20.944C71.6853 21.412 72.318 21.7847 73.098 22.062C73.878 22.322 74.7533 22.452 75.724 22.452C76.608 22.452 77.336 22.3567 77.908 22.166C78.48 21.9753 78.9047 21.7067 79.182 21.36C79.4593 21.0133 79.598 20.5973 79.598 20.112C79.598 19.644 79.4247 19.2887 79.078 19.046C78.7313 18.786 78.1853 18.578 77.44 18.422C76.6947 18.2487 75.7153 18.0753 74.502 17.902C73.5487 17.7633 72.6473 17.5727 71.798 17.33C70.9487 17.07 70.1947 16.7407 69.536 16.342C68.8947 15.9433 68.3833 15.458 68.002 14.886C67.638 14.2967 67.456 13.6033 67.456 12.806C67.456 11.818 67.7333 10.9513 68.288 10.206C68.86 9.46067 69.7007 8.88 70.81 8.464C71.9193 8.048 73.28 7.84 74.892 7.84C77.3187 7.84 79.182 8.36 80.482 9.4C81.7993 10.4227 82.4407 11.8353 82.406 13.638H79.026C78.9567 12.6153 78.5233 11.8787 77.726 11.428C76.946 10.9773 75.958 10.752 74.762 10.752C73.6527 10.752 72.734 10.9167 72.006 11.246C71.2953 11.5753 70.94 12.1387 70.94 12.936C70.94 13.248 71.0267 13.5253 71.2 13.768C71.3733 13.9933 71.668 14.1927 72.084 14.366C72.5 14.5393 73.0633 14.704 73.774 14.86C74.4847 15.016 75.3687 15.172 76.426 15.328C77.414 15.4667 78.3067 15.6573 79.104 15.9C79.9187 16.1253 80.612 16.4287 81.184 16.81C81.7733 17.174 82.224 17.642 82.536 18.214C82.848 18.786 83.004 19.488 83.004 20.32C83.004 21.3427 82.7353 22.2353 82.198 22.998C81.678 23.7433 80.8633 24.324 79.754 24.74C78.662 25.156 77.2407 25.364 75.49 25.364C74.242 25.364 73.1413 25.234 72.188 24.974C71.2347 24.6967 70.4113 24.3327 69.718 23.882C69.0247 23.4313 68.4613 22.9373 68.028 22.4C67.5947 21.8627 67.2827 21.3253 67.092 20.788C66.9187 20.2507 66.8493 19.7653 66.884 19.332ZM89.5127 8.178V22.114H100.693V25H86.0547V8.178H89.5127ZM106.53 21.334V18.448H117.658V21.334H106.53ZM102.344 25L110.248 8.178H113.992L121.974 25H118.204L111.288 9.842H112.952L106.088 25H102.344ZM143.212 18.942C143.056 20.294 142.579 21.4467 141.782 22.4C140.985 23.3533 139.901 24.0813 138.532 24.584C137.163 25.0867 135.533 25.338 133.644 25.338C132.067 25.338 130.619 25.156 129.302 24.792C128.002 24.428 126.875 23.882 125.922 23.154C124.986 22.426 124.258 21.5247 123.738 20.45C123.218 19.358 122.958 18.084 122.958 16.628C122.958 15.172 123.218 13.898 123.738 12.806C124.258 11.714 124.986 10.804 125.922 10.076C126.875 9.33067 128.002 8.776 129.302 8.412C130.619 8.03067 132.067 7.84 133.644 7.84C135.533 7.84 137.163 8.1 138.532 8.62C139.919 9.14 141.011 9.88533 141.808 10.856C142.605 11.8093 143.073 12.9707 143.212 14.34H139.78C139.555 13.612 139.173 12.988 138.636 12.468C138.116 11.9307 137.44 11.5233 136.608 11.246C135.776 10.9687 134.788 10.83 133.644 10.83C132.223 10.83 130.975 11.0553 129.9 11.506C128.825 11.9393 127.993 12.5893 127.404 13.456C126.815 14.3053 126.52 15.3627 126.52 16.628C126.52 17.876 126.815 18.9247 127.404 19.774C127.993 20.6233 128.825 21.2733 129.9 21.724C130.975 22.1573 132.223 22.374 133.644 22.374C134.788 22.374 135.767 22.2353 136.582 21.958C137.414 21.6807 138.09 21.282 138.61 20.762C139.147 20.242 139.537 19.6353 139.78 18.942H143.212ZM153.788 16.81L153.762 15.354L165.098 25H160.106L150.018 16.16L158.988 8.178H163.902L153.788 16.81ZM146.586 8.178H150.044V25H146.586V8.178Z" fill="white"/>
<path d="M24.745 0.619251C24.8993 0.24455 25.2645 0 25.6697 0H32.5068C33.2186 0 33.7025 0.722578 33.4315 1.38075L20.255 33.3807C20.1007 33.7555 19.7355 34 19.3303 34H12.4932C11.7814 34 11.2975 33.2774 11.5685 32.6193L24.745 0.619251Z" fill="#1351D8"/>
<path d="M13.745 0.619251C13.8993 0.24455 14.2645 0 14.6697 0H21.5068C22.2186 0 22.7025 0.722578 22.4315 1.38075L9.25499 33.3807C9.1007 33.7555 8.73553 34 8.33031 34H1.49322C0.781437 34 0.297532 33.2774 0.568544 32.6193L13.745 0.619251Z" fill="white"/>
<path d="M35.745 0.619251C35.8993 0.24455 36.2645 0 36.6697 0H43.5068C44.2186 0 44.7025 0.722578 44.4315 1.38075L31.255 33.3807C31.1007 33.7555 30.7355 34 30.3303 34H23.4932C22.7814 34 22.2975 33.2774 22.5685 32.6193L35.745 0.619251Z" fill="#1351D8" fill-opacity="0.7"/>
<path d="M46.745 0.619251C46.8993 0.24455 47.2645 0 47.6697 0H54.5068C55.2186 0 55.7025 0.722578 55.4315 1.38075L42.255 33.3807C42.1007 33.7555 41.7355 34 41.3303 34H34.4932C33.7814 34 33.2975 33.2774 33.5685 32.6193L46.745 0.619251Z" fill="#1351D8" fill-opacity="0.45"/>
</svg>
